<svg width="32" height="32" viewBox="0 0 32 32" fill="none" xmlns="http://www.w3.org/2000/svg">
<path d="M20.6369 5C14.309 5 9.27539 10.1055 9.27539 16.3616C9.27539 22.6895 14.3809 27.7231 20.6369 27.7231C26.893 27.7231 31.9985 22.6176 31.9985 16.3616C32.0704 10.1055 26.893 5 20.6369 5ZM20.6369 20.6041C18.3359 20.6041 16.3943 18.6626 16.3943 16.3616C16.3943 14.0605 18.3359 12.119 20.6369 12.119C22.938 12.119 24.8795 14.0605 24.8795 16.3616C24.8795 18.6626 23.0099 20.6041 20.6369 20.6041Z" fill="#8B3FFD"/>
<path d="M9.27621 8.30859V24.8476H5.17741L0 8.30859H9.27621Z" fill="#8B3FFD"/>
</svg>
